<svg xmlns="http://www.w3.org/2000/svg" width="187" height="56" viewBox="0 0 187 56" fill="none">
  <g clip-path="url(#clip0_3_105)">
    <path d="M171.422 0.890625H14.8338C14.2734 0.890625 13.7131 0.890625 13.1372 0.890625C12.6546 0.890625 12.1877 0.904375 11.7052 0.904375C10.6623 0.931875 9.61944 0.986875 8.59212 1.15187C7.54923 1.31687 6.58418 1.59188 5.63469 2.01813C4.70076 2.43063 3.84466 2.98062 3.11309 3.64062C2.36595 4.28688 1.74333 5.04313 1.27637 5.86812C0.793837 6.70687 0.482528 7.55938 0.295743 8.48063C0.108958 9.38813 0.0466963 10.3094 0.0155654 11.2306C0.0155654 11.6568 0 12.0831 0 12.4956C0 12.9906 0 13.4993 0 13.9943V42.7731C0 43.2819 0 43.7768 0 44.2718C0 44.6981 0.0155654 45.1106 0.0311309 45.5369C0.0622617 46.4581 0.124523 47.3794 0.311309 48.2869C0.498094 49.2081 0.793837 50.0744 1.29193 50.8993C1.75889 51.7243 2.38151 52.4668 3.12865 53.1131C3.86023 53.7731 4.71633 54.3231 5.65025 54.7356C6.59974 55.1619 7.5648 55.4368 8.60768 55.6019C9.635 55.7669 10.6934 55.8219 11.7207 55.8494C12.1877 55.8769 12.6546 55.8906 13.1372 55.8906C13.7131 55.8906 14.2734 55.8906 14.8338 55.8906H171.422C171.983 55.8906 172.543 55.8906 173.103 55.8906C173.57 55.8906 174.068 55.8906 174.535 55.8769C175.578 55.8494 176.621 55.7944 177.649 55.6294C178.691 55.4644 179.656 55.1894 180.621 54.7631C181.555 54.3506 182.395 53.8006 183.142 53.1406C183.889 52.4943 184.497 51.7381 184.98 50.9268C185.462 50.0881 185.773 49.2356 185.944 48.3144C186.131 47.4069 186.193 46.4856 186.241 45.5644C186.241 45.1381 186.241 44.7256 186.241 44.2993C186.255 43.8043 186.255 43.3094 186.255 42.8006V14.0081C186.255 13.4994 186.255 13.0043 186.241 12.5093C186.241 12.0831 186.241 11.6706 186.241 11.2444C186.209 10.3231 186.147 9.40188 185.944 8.49438C185.773 7.57313 185.462 6.72062 184.98 5.88188C184.497 5.05688 183.875 4.30063 183.142 3.65438C182.411 3.00813 181.555 2.45812 180.621 2.03188C179.656 1.60563 178.691 1.33062 177.649 1.16563C176.621 1.00062 175.578 0.945625 174.535 0.918125C174.068 0.918125 173.57 0.904375 173.103 0.904375C172.558 0.890625 171.983 0.890625 171.422 0.890625Z" fill="#B7B7B7"/>
    <path d="M13.1372 54.6806C12.6703 54.6806 12.2033 54.6806 11.7364 54.6668C10.8647 54.6393 9.83735 54.5981 8.82559 54.4468C7.8761 54.2956 7.03557 54.0481 6.24173 53.6906C5.43233 53.3331 4.70075 52.8518 4.06257 52.2881C3.42439 51.7243 2.89516 51.0918 2.4749 50.3631C2.0702 49.6756 1.79002 48.9193 1.63436 48.0806C1.44758 47.1593 1.40088 46.2106 1.36975 45.4956C1.35419 45.2068 1.35419 44.2443 1.35419 44.2443V12.4956C1.35419 12.4956 1.36975 11.5468 1.36975 11.2718C1.40088 10.5568 1.44758 9.60809 1.63436 8.70059C1.80558 7.84809 2.08576 7.10559 2.49046 6.41809C2.91073 5.70309 3.43995 5.05684 4.07814 4.49309C4.71632 3.91559 5.4479 3.44809 6.24173 3.09059C7.03557 2.73309 7.89167 2.48559 8.81003 2.34809C9.86848 2.16934 10.9269 2.12809 11.7364 2.11434L13.1372 2.10059H173.103L174.52 2.11434C175.313 2.12809 176.387 2.16934 177.414 2.33434C178.348 2.48559 179.205 2.71934 180.014 3.09059C180.808 3.44809 181.539 3.92934 182.178 4.49309C182.816 5.05684 183.345 5.70309 183.765 6.41809C184.17 7.11934 184.435 7.86184 184.606 8.68684C184.793 9.55309 184.839 10.4468 184.871 11.2856C184.871 11.6706 184.871 12.0968 184.871 12.5093C184.886 13.0318 184.886 13.5131 184.886 14.0081V42.7868C184.886 43.2818 184.886 43.7768 184.871 44.2718C184.871 44.7256 184.871 45.1243 184.871 45.5506C184.839 46.3618 184.777 47.2556 184.606 48.0943C184.45 48.9331 184.17 49.6893 183.765 50.3906C183.345 51.1056 182.816 51.7518 182.178 52.3018C181.539 52.8793 180.808 53.3468 179.999 53.7043C179.189 54.0618 178.364 54.3093 177.399 54.4606C176.403 54.6256 175.375 54.6668 174.488 54.6806C174.037 54.6943 173.554 54.6943 173.088 54.6943H171.407L13.1372 54.6806Z" fill="#000001"/>
    <path fill-rule="evenodd" clip-rule="evenodd" d="M111.62 38.0706C111.837 39.7619 113.69 40.8756 116.243 40.8756C118.687 40.8756 120.43 39.7619 120.43 38.2356C120.43 36.9156 119.372 36.1181 116.865 35.5681L114.359 35.0319C110.81 34.2756 109.16 32.8044 109.16 30.4256C109.16 27.4831 112.071 25.4619 116.196 25.4619C120.274 25.4619 123.076 27.4831 123.17 30.4256H120.243C120.071 28.7206 118.468 27.6894 116.149 27.6894C113.83 27.6894 112.227 28.7344 112.227 30.2469C112.227 31.4569 113.238 32.1581 115.729 32.7081L117.861 33.1756C121.83 34.0006 123.481 35.4169 123.481 37.9056C123.481 41.0956 120.601 43.1031 116.024 43.1031C111.744 43.1031 108.849 41.1506 108.662 38.0569H111.62V38.0706ZM129.738 27.4281V30.3706H132.415V32.3918H129.738V39.2531C129.738 40.3256 130.267 40.8206 131.45 40.8206C131.697 40.8206 132.063 40.7919 132.286 40.7744L132.287 40.7743L132.341 40.7701L132.4 40.7656V42.7731C132.073 42.8418 131.434 42.8968 130.796 42.8968C127.948 42.8968 126.827 41.9481 126.827 39.5418V32.4056H124.772V30.3843H126.827V27.4281H129.738ZM140.633 30.2194C136.571 30.2194 133.956 32.6806 133.956 36.5994C133.956 40.5319 136.556 42.9794 140.633 42.9794C144.727 42.9794 147.311 40.5319 147.311 36.5994C147.311 32.6806 144.712 30.2194 140.633 30.2194ZM140.649 32.3231C142.983 32.3231 144.385 33.9181 144.385 36.5994C144.385 39.2944 142.999 40.8756 140.649 40.8756C138.299 40.8756 136.914 39.2944 136.914 36.5994C136.914 33.9181 138.314 32.3231 140.649 32.3231ZM149.724 30.3706H152.479V32.4881H152.541C152.977 31.0856 154.269 30.2331 155.934 30.2331C156.355 30.2331 156.697 30.2881 156.93 30.3294V32.7219C156.697 32.6394 156.199 32.5706 155.638 32.5706C153.771 32.5706 152.619 33.6844 152.619 35.4306V42.8144H149.724V30.3706ZM164.184 42.9794C167.375 42.9794 169.866 41.4256 170.254 39.1706H167.515C167.126 40.2431 165.865 40.9169 164.262 40.9169C161.973 40.9169 160.464 39.5281 160.464 37.3969V37.2456H170.41V36.3656C170.41 32.5844 167.95 30.2194 164.06 30.2194C160.091 30.2194 157.538 32.7494 157.538 36.6544C157.538 40.5594 160.091 42.9794 164.184 42.9794ZM167.53 35.4444H160.479C160.635 33.5744 162.083 32.2956 164.075 32.2819C166.083 32.2819 167.468 33.5331 167.53 35.4444Z" fill="#EBEEF3"/>
    <path fill-rule="evenodd" clip-rule="evenodd" d="M65.8419 38.208H58.4795L56.705 42.828H53.5919L60.5652 25.7505H63.8028L70.7762 42.828H67.6008L65.8419 38.208ZM59.2421 36.0767H65.0792L62.1995 28.583H62.1218L59.2421 36.0767ZM85.8591 36.5992C85.8591 40.4629 83.5087 42.9517 79.9754 42.9517C77.9674 42.9517 76.3797 42.1542 75.5392 40.7792H75.4769V46.9392H72.5817V30.3704H75.3835V32.4467H75.4303C76.2397 31.1129 77.9519 30.2467 79.9131 30.2467C83.5087 30.2467 85.8591 32.7354 85.8591 36.5992ZM82.8861 36.5992C82.8861 34.0829 81.4074 32.4192 79.166 32.4192C76.9557 32.4192 75.4614 34.1104 75.4614 36.5992C75.4614 39.1017 76.9557 40.7929 79.166 40.7929C81.4074 40.7929 82.8861 39.1429 82.8861 36.5992ZM95.4785 42.9517C99.012 42.9517 101.362 40.4629 101.362 36.5992C101.362 32.7354 99.012 30.2467 95.4319 30.2467C93.4707 30.2467 91.7585 31.1129 90.9491 32.4467H90.9023V30.3704H88.1005V46.9392H90.9802V40.7792H91.0425C91.883 42.1542 93.4707 42.9517 95.4785 42.9517ZM94.6691 32.4192C96.9106 32.4192 98.3893 34.0829 98.3893 36.5992C98.3893 39.1429 96.9262 40.7929 94.6691 40.7929C92.4589 40.7929 90.9646 39.1017 90.9646 36.5992C90.9646 34.1104 92.4589 32.4192 94.6691 32.4192Z" fill="#EBEEF3"/>
    <path fill-rule="evenodd" clip-rule="evenodd" d="M148.961 12.4956H150.33V15.9056H150.44C150.782 15.2181 151.513 14.7918 152.572 14.7918C154.066 14.7918 154.985 15.6306 154.985 17.1018V21.1031H153.6V17.4043C153.6 16.4143 153.086 15.9193 152.105 15.9193C150.969 15.9193 150.346 16.5518 150.346 17.4868V21.1031H148.961V12.4956ZM145.568 13.3619V14.9294H147.094V15.9607H145.568V19.1507C145.568 19.7969 145.863 20.0857 146.564 20.0857C146.729 20.0857 146.831 20.0778 146.959 20.068C147 20.0649 147.044 20.0615 147.094 20.0582V21.0757C147.06 21.0799 147.025 21.0846 146.989 21.0893C146.793 21.115 146.57 21.1444 146.347 21.1444C144.805 21.1444 144.198 20.6632 144.198 19.4669V15.9744H143.093V14.9432H144.198V13.3619H145.568ZM160.028 21.2132C161.631 21.2132 162.752 20.5394 163.063 19.4257H161.74C161.491 19.9207 160.915 20.1819 160.075 20.1819C158.97 20.1819 158.253 19.4944 158.207 18.4082V18.3394H163.156V17.9132C163.156 15.9744 161.973 14.7919 160.028 14.7919C158.051 14.7919 156.791 16.0432 156.791 18.0232C156.791 20.0032 158.02 21.2132 160.028 21.2132ZM161.74 17.4319H158.207C158.285 16.4694 158.985 15.8232 160.013 15.8232C161.039 15.8232 161.71 16.4557 161.74 17.4319Z" fill="#EBEEF3"/>
    <path fill-rule="evenodd" clip-rule="evenodd" d="M126.625 14.7783C124.586 14.7783 123.325 16.002 123.325 17.9958C123.325 20.0033 124.586 21.2133 126.625 21.2133C128.663 21.2133 129.924 20.0033 129.924 17.9958C129.924 15.9883 128.663 14.7783 126.625 14.7783ZM126.625 15.8645C127.823 15.8645 128.508 16.6483 128.508 17.9958C128.508 19.3433 127.823 20.127 126.625 20.127C125.411 20.127 124.741 19.3433 124.741 17.9958C124.741 16.6483 125.426 15.8645 126.625 15.8645ZM133.131 14.9021H131.792V21.1033H133.178V17.4871C133.178 16.5246 133.832 15.9196 134.859 15.9196C135.887 15.9196 136.369 16.4146 136.369 17.4046V21.1033H137.755V17.0883C137.755 15.6171 136.883 14.7921 135.326 14.7921C134.283 14.7921 133.583 15.2046 133.24 15.8921H133.131V14.9021Z" fill="#EBEEF3"/>
    <path fill-rule="evenodd" clip-rule="evenodd" d="M91.9762 12.4956H93.3615V21.1031H91.9762V12.4956ZM63.2579 16.9643C63.2579 14.3931 61.6391 12.8943 58.884 12.8943H55.5219V21.0893H58.884C61.6546 21.0893 63.2579 19.5906 63.2579 16.9643ZM58.7128 19.9343H56.9695V14.0493H58.7128C60.6429 14.0493 61.7792 15.1218 61.7792 16.9781C61.7792 18.8618 60.6584 19.9343 58.7128 19.9343ZM68.1766 14.7781C66.1376 14.7781 64.8767 16.0019 64.8767 17.9956C64.8767 20.0031 66.1376 21.2131 68.1766 21.2131C70.2157 21.2131 71.4765 20.0031 71.4765 17.9956C71.4765 15.9881 70.2157 14.7781 68.1766 14.7781ZM68.1766 15.8644C69.3752 15.8644 70.0601 16.6481 70.0601 17.9956C70.0601 19.3431 69.3907 20.1269 68.1766 20.1269C66.9625 20.1269 66.2932 19.3431 66.2932 17.9956C66.2932 16.6481 66.9781 15.8644 68.1766 15.8644ZM80.2712 21.1031H78.8392L77.3916 16.5381H77.2827L75.835 21.1031H74.4186L72.4885 14.9156H73.8894L75.1501 19.6456H75.259L76.7067 14.9156H78.0298L79.4773 19.6456H79.5863L80.8316 14.9156H82.2168L80.2712 21.1031ZM85.1585 14.9019H83.8199V21.1032H85.2053V17.4869C85.2053 16.5244 85.859 15.9194 86.8864 15.9194C87.9137 15.9194 88.3962 16.4144 88.3962 17.4044V21.1032H89.7815V17.0882C89.7815 15.6169 88.9099 14.7919 87.3533 14.7919C86.3104 14.7919 85.61 15.2044 85.2676 15.8919H85.1585V14.9019ZM98.5914 14.7781C96.5523 14.7781 95.2916 16.0019 95.2916 17.9956C95.2916 20.0031 96.5368 21.2131 98.5914 21.2131C100.63 21.2131 101.891 20.0031 101.891 17.9956C101.891 15.9881 100.63 14.7781 98.5914 14.7781ZM98.5914 15.8644C99.7899 15.8644 100.475 16.6481 100.475 17.9956C100.475 19.3431 99.7899 20.1269 98.5914 20.1269C97.3773 20.1269 96.708 19.3431 96.708 17.9956C96.708 16.6481 97.3929 15.8644 98.5914 15.8644ZM103.354 19.3432C103.354 18.2294 104.288 17.5832 105.954 17.5007L107.853 17.4044V16.8682C107.853 16.2082 107.37 15.8507 106.421 15.8507C105.643 15.8507 105.113 16.0982 104.958 16.5382H103.619C103.759 15.4794 104.895 14.7919 106.483 14.7919C108.242 14.7919 109.238 15.5619 109.238 16.8682V21.1032H107.899V20.2369H107.791C107.37 20.8557 106.608 21.2132 105.689 21.2132C104.335 21.1994 103.354 20.4844 103.354 19.3432ZM107.868 18.8207V18.2982L106.156 18.3944C105.191 18.4494 104.755 18.7382 104.755 19.2882C104.755 19.8519 105.3 20.1682 106.047 20.1682C107.09 20.1682 107.868 19.5907 107.868 18.8207ZM113.971 14.8056C112.196 14.8056 111.059 16.0431 111.059 17.9956C111.059 19.9618 112.18 21.1993 113.971 21.2131C114.935 21.2131 115.745 20.8006 116.165 20.1268H116.274V21.1031H117.612V12.4956H116.227V15.8918H116.118C115.745 15.2043 114.935 14.8056 113.971 14.8056ZM114.359 20.0993C113.192 20.0993 112.491 19.3156 112.491 17.9956C112.491 16.7031 113.192 15.9056 114.359 15.8918C115.511 15.8918 116.243 16.7031 116.243 17.9956C116.243 19.3018 115.527 20.0993 114.359 20.0993Z" fill="#EBEEF3"/>
    <path fill-rule="evenodd" clip-rule="evenodd" d="M36.0337 12.8809C36.2672 14.6547 35.4733 16.4009 34.306 17.6797C33.0919 18.9447 31.1461 19.9072 29.2628 19.7834C29.0137 18.0784 29.9632 16.2634 31.0372 15.1634C32.2513 13.9122 34.3526 12.9497 36.0337 12.8809ZM42.2289 23.0971C42.0578 23.1796 38.5089 25.0221 38.5555 28.8034C38.6023 33.3409 43.0384 34.8396 43.1162 34.8534C43.0851 34.9496 42.4157 37.0121 40.7503 39.1021C39.3649 40.9446 37.9018 42.7459 35.5826 42.7734C34.4787 42.7936 33.7361 42.5145 32.9632 42.224C32.1556 41.9206 31.3148 41.6046 29.9945 41.6046C28.5999 41.6046 27.7205 41.9292 26.8709 42.2428C26.1368 42.5137 25.425 42.7764 24.4221 42.8147C22.2118 42.8971 20.5307 40.8621 19.0832 39.0334C16.2036 35.3071 13.9621 28.5421 16.9662 23.9359C18.4138 21.6809 21.0756 20.2234 23.924 20.1821C25.1777 20.1587 26.3814 20.5866 27.4356 20.9613C28.2399 21.2472 28.957 21.5021 29.5431 21.5021C30.0551 21.5021 30.7487 21.2592 31.5583 20.9758C32.8412 20.5265 34.4151 19.9754 36.0183 20.1271C37.1079 20.1546 40.221 20.5121 42.2289 23.0971Z" fill="#EBEEF3"/>
  </g>
  <defs>
    <clipPath id="clip0_3_105">
      <rect width="186.785" height="55" fill="white" transform="translate(0 0.890625)"/>
    </clipPath>
  </defs>
</svg>