<svg xmlns="http://www.w3.org/2000/svg" width="213" height="56" viewBox="0 0 213 56" fill="none">
  <g clip-path="url(#clip0_3_116)">
    <path d="M203.491 55.8906H8.92377C4.64327 55.8906 1.14105 52.7968 1.14105 49.0156V7.76562C1.14105 3.98438 4.64327 0.890625 8.92377 0.890625H203.491C207.772 0.890625 211.274 3.98438 211.274 7.76562V49.0156C211.274 52.7968 207.772 55.8906 203.491 55.8906Z" fill="black"/>
    <path d="M203.491 1.99063C207.102 1.99063 210.029 4.57562 210.029 7.76562V49.0156C210.029 52.2056 207.102 54.7906 203.491 54.7906H8.92377C5.31259 54.7906 2.38629 52.2056 2.38629 49.0156V7.76562C2.38629 4.57562 5.31259 1.99063 8.92377 1.99063H203.491ZM203.491 0.890625H8.92377C4.64327 0.890625 1.14105 3.98438 1.14105 7.76562V49.0156C1.14105 52.7968 4.64327 55.8906 8.92377 55.8906H203.491C207.772 55.8906 211.274 52.7968 211.274 49.0156V7.76562C211.274 3.98438 207.772 0.890625 203.491 0.890625Z" fill="#A6A6A6"/>
    <path d="M107.204 30.797C103.546 30.797 100.558 33.2583 100.558 36.6408C100.558 40.0095 103.546 42.4845 107.204 42.4845C110.862 42.4845 113.85 40.0095 113.85 36.6408C113.85 33.2583 110.862 30.797 107.204 30.797ZM107.204 40.1883C105.196 40.1883 103.468 38.7308 103.468 36.6408C103.468 34.537 105.196 33.0933 107.204 33.0933C109.212 33.0933 110.94 34.537 110.94 36.6408C110.94 38.7308 109.196 40.1883 107.204 40.1883ZM92.6969 30.797C89.0391 30.797 86.0506 33.2583 86.0506 36.6408C86.0506 40.0095 89.0391 42.4845 92.6969 42.4845C96.3549 42.4845 99.3434 40.0095 99.3434 36.6408C99.3434 33.2583 96.3549 30.797 92.6969 30.797ZM92.6969 40.1883C90.6891 40.1883 88.9612 38.7308 88.9612 36.6408C88.9612 34.537 90.6891 33.0933 92.6969 33.0933C94.7049 33.0933 96.4326 34.537 96.4326 36.6408C96.4326 38.7308 94.7049 40.1883 92.6969 40.1883ZM75.4504 32.5983V35.0733H82.1747C81.9724 36.462 81.4432 37.4933 80.6493 38.1946C79.6687 39.0608 78.1433 40.0095 75.4661 40.0095C71.3257 40.0095 68.088 37.0671 68.088 33.4096C68.088 29.7521 71.3257 26.8095 75.4661 26.8095C77.6919 26.8095 79.3263 27.5795 80.5248 28.5833L82.5016 26.837C80.8206 25.4208 78.5947 24.3345 75.4504 24.3345C69.7846 24.3345 65.0216 28.4045 65.0216 33.4233C65.0216 38.4283 69.7846 42.512 75.4504 42.512C78.5169 42.512 80.8206 41.632 82.6262 39.9683C84.4784 38.332 85.0544 36.022 85.0544 34.1658C85.0544 33.5883 85.0076 33.052 84.8987 32.612H75.4504V32.5983ZM145.977 34.5233C145.433 33.217 143.752 30.797 140.311 30.797C136.903 30.797 134.07 33.162 134.07 36.6408C134.07 39.9133 136.872 42.4845 140.638 42.4845C143.673 42.4845 145.433 40.8483 146.149 39.8995L143.892 38.5658C143.145 39.5421 142.117 40.1883 140.638 40.1883C139.16 40.1883 138.102 39.5833 137.433 38.4145L146.288 35.1833L145.977 34.5233ZM136.949 36.4758C136.872 34.2208 138.927 33.0658 140.405 33.0658C141.557 33.0658 142.538 33.5745 142.864 34.3033L136.949 36.4758ZM129.759 42.1408H132.669V24.9533H129.759V42.1408ZM124.995 32.1033H124.886C124.233 31.4158 122.988 30.797 121.4 30.797C118.084 30.797 115.049 33.3683 115.049 36.6683C115.049 39.9408 118.084 42.4983 121.4 42.4983C122.972 42.4983 124.233 41.8795 124.886 41.1645H124.98V42.0033C124.98 44.2446 123.625 45.4408 121.446 45.4408C119.672 45.4408 118.567 44.3133 118.116 43.3645L115.579 44.2995C116.31 45.8533 118.24 47.7508 121.446 47.7508C124.856 47.7508 127.734 45.9771 127.734 41.6596V31.1545H124.98V32.1033H124.995ZM121.649 40.1883C119.64 40.1883 117.959 38.7033 117.959 36.6683C117.959 34.6058 119.64 33.107 121.649 33.107C123.625 33.107 125.182 34.6195 125.182 36.6683C125.198 38.7033 123.641 40.1883 121.649 40.1883ZM159.612 24.9533H152.655V42.1408H155.565V35.6233H159.628C162.85 35.6233 166.011 33.5608 166.011 30.2883C166.011 27.0158 162.819 24.9533 159.612 24.9533ZM159.675 33.2308H155.551V27.332H159.675C161.854 27.332 163.084 28.927 163.084 30.2746C163.084 31.622 161.854 33.2308 159.675 33.2308ZM177.638 30.7695C175.537 30.7695 173.358 31.5945 172.454 33.3958L175.039 34.3446C175.583 33.3958 176.61 33.0795 177.684 33.0795C179.178 33.0795 180.719 33.877 180.735 35.2933V35.4721C180.206 35.2108 179.086 34.812 177.7 34.812C174.914 34.812 172.096 36.1595 172.096 38.6758C172.096 40.972 174.368 42.457 176.921 42.457C178.867 42.457 179.957 41.687 180.626 40.7795H180.719V42.1133H183.521V35.527C183.537 32.4745 180.953 30.7695 177.638 30.7695ZM177.28 40.1883C176.33 40.1883 175.007 39.762 175.007 38.7308C175.007 37.4108 176.657 36.902 178.089 36.902C179.365 36.902 179.972 37.1495 180.735 37.4796C180.518 39.0608 178.961 40.1883 177.28 40.1883ZM193.748 31.1408L190.417 38.5933H190.323L186.868 31.1408H183.739L188.923 41.5633L185.965 47.352H189L196.985 31.1408H193.748ZM167.598 42.1408H170.508V24.9533H167.598V42.1408Z" fill="#EBEEF3"/>
    <path fill-rule="evenodd" clip-rule="evenodd" d="M74.9525 14.9706C74.9525 16.1256 74.5634 17.0469 73.7851 17.7206C72.9134 18.5319 71.7616 18.9444 70.3607 18.9444C69.0065 18.9444 67.8702 18.5319 66.9207 17.7069C65.9713 16.8819 65.5043 15.8506 65.5043 14.6406C65.5043 13.4169 65.9713 12.3994 66.9207 11.5744C67.8702 10.7494 69.0065 10.3369 70.3607 10.3369C71.03 10.3369 71.6682 10.4469 72.2752 10.6807C72.8823 10.9144 73.3648 11.2169 73.7384 11.6019L72.9134 12.3306C72.2908 11.6844 71.4503 11.3544 70.3607 11.3544C69.38 11.3544 68.524 11.6569 67.808 12.2756C67.092 12.8806 66.7339 13.6781 66.7339 14.6544C66.7339 15.6306 67.092 16.4281 67.808 17.0331C68.524 17.6381 69.38 17.9544 70.3607 17.9544C71.4035 17.9544 72.2752 17.6519 72.9757 17.0331C73.427 16.6344 73.6917 16.0706 73.754 15.3556H70.3607V14.3656H74.8902C74.9213 14.5719 74.9525 14.7781 74.9525 14.9706ZM82.1278 11.5332H77.8785V14.1457H81.7076V15.1357H77.8785V17.7482H82.1278V18.7657H76.6799V10.5157H82.1278V11.5332ZM85.9881 18.7657H87.171V11.5332H89.786V10.5157H83.3731V11.5332H85.9881V18.7657Z" fill="#EBEEF3"/>
    <path d="M73.7851 17.7205L73.7057 17.6491L73.7029 17.6517L73.7851 17.7205ZM66.9207 17.7068L66.8413 17.7781L66.9207 17.7068ZM66.9207 11.5743L66.8413 11.503L66.9207 11.5743ZM73.7383 11.6018L73.8184 11.6725L73.8925 11.607L73.8243 11.5367L73.7383 11.6018ZM72.9134 12.3305L72.8272 12.3953L72.9066 12.4779L72.9935 12.4012L72.9134 12.3305ZM67.808 12.2755L67.8862 12.3478L67.8871 12.347L67.808 12.2755ZM67.808 17.033L67.8862 16.9608L67.808 17.033ZM72.9757 17.033L73.0557 17.1037L72.9757 17.033ZM73.754 15.3555L73.8668 15.3632L73.8761 15.2555H73.754V15.3555ZM70.3607 15.3555H70.2475V15.4555H70.3607V15.3555ZM70.3607 14.3655V14.2655H70.2475V14.3655H70.3607ZM74.8902 14.3655L75.0024 14.3523L74.9894 14.2655H74.8902V14.3655ZM77.8785 11.5331V11.4331H77.7653V11.5331H77.8785ZM82.1278 11.5331V11.6331H82.241V11.5331H82.1278ZM77.8785 14.1456H77.7653V14.2456H77.8785V14.1456ZM81.7076 14.1456H81.8208V14.0456H81.7076V14.1456ZM81.7076 15.1356V15.2356H81.8208V15.1356H81.7076ZM77.8785 15.1356V15.0356H77.7653V15.1356H77.8785ZM77.8785 17.7481H77.7653V17.8481H77.8785V17.7481ZM82.1278 17.7481H82.241V17.6481H82.1278V17.7481ZM82.1278 18.7656V18.8656H82.241V18.7656H82.1278ZM76.6799 18.7656H76.5667V18.8656H76.6799V18.7656ZM76.6799 10.5156V10.4156H76.5667V10.5156H76.6799ZM82.1278 10.5156H82.241V10.4156H82.1278V10.5156ZM87.171 18.7656V18.8656H87.2842V18.7656H87.171ZM85.9881 18.7656H85.8749V18.8656H85.9881V18.7656ZM87.171 11.5331V11.4331H87.0578V11.5331H87.171ZM89.786 11.5331V11.6331H89.8992V11.5331H89.786ZM89.786 10.5156H89.8992V10.4156H89.786V10.5156ZM83.3731 10.5156V10.4156H83.2599V10.5156H83.3731ZM83.3731 11.5331H83.2599V11.6331H83.3731V11.5331ZM85.9881 11.5331H86.1013V11.4331H85.9881V11.5331ZM73.8643 17.792C74.6687 17.0956 75.0656 16.1464 75.0656 14.9705H74.8392C74.8392 16.1046 74.458 16.998 73.7059 17.6491L73.8643 17.792ZM70.3607 19.0443C71.789 19.0443 72.9717 18.6227 73.8672 17.7894L73.7029 17.6517C72.855 18.4409 71.7341 18.8443 70.3607 18.8443V19.0443ZM66.8413 17.7781C67.812 18.6216 68.9769 19.0443 70.3607 19.0443V18.8443C69.036 18.8443 67.9283 18.442 67 17.6355L66.8413 17.7781ZM65.3911 14.6405C65.3911 15.8757 65.8689 16.9332 66.8413 17.7781L67 17.6355C66.0735 16.8304 65.6175 15.8254 65.6175 14.6405H65.3911ZM66.8413 11.503C65.869 12.3478 65.3911 13.3914 65.3911 14.6405H65.6175C65.6175 13.4421 66.0734 12.4508 67 11.6456L66.8413 11.503ZM70.3607 10.2368C68.9769 10.2368 67.812 10.6595 66.8413 11.503L67 11.6456C67.9283 10.8391 69.036 10.4368 70.3607 10.4368V10.2368ZM72.3205 10.5889C71.6982 10.3493 71.0445 10.2368 70.3607 10.2368V10.4368C71.0155 10.4368 71.6382 10.5444 72.23 10.7722L72.3205 10.5889ZM73.8243 11.5367C73.4379 11.1385 72.9405 10.8277 72.3205 10.5889L72.23 10.7722C72.824 11.0009 73.2916 11.2951 73.6524 11.6669L73.8243 11.5367ZM72.9935 12.4012L73.8184 11.6725L73.6583 11.5311L72.8334 12.2598L72.9935 12.4012ZM70.3607 11.4543C71.4207 11.4543 72.2283 11.7738 72.8272 12.3953L72.9996 12.2657C72.3532 11.5948 71.4797 11.2543 70.3607 11.2543V11.4543ZM67.8871 12.347C68.5818 11.7467 69.4095 11.4543 70.3607 11.4543V11.2543C69.3506 11.2543 68.466 11.5669 67.7287 12.2041L67.8871 12.347ZM66.8471 14.6543C66.8471 13.7016 67.1953 12.9315 67.8862 12.3478L67.7296 12.2033C66.9885 12.8296 66.6207 13.6544 66.6207 14.6543H66.8471ZM67.8862 16.9608C67.1953 16.3771 66.8471 15.6069 66.8471 14.6543H66.6207C66.6207 15.6541 66.9885 16.479 67.7296 17.1053L67.8862 16.9608ZM70.3607 17.8543C69.4105 17.8543 68.5821 17.5488 67.8862 16.9608L67.7296 17.1053C68.4658 17.7273 69.3496 18.0543 70.3607 18.0543V17.8543ZM72.8957 16.9623C72.218 17.5609 71.3759 17.8543 70.3607 17.8543V18.0543C71.4312 18.0543 72.3324 17.7427 73.0557 17.1037L72.8957 16.9623ZM73.6411 15.3479C73.5803 16.0452 73.3235 16.5844 72.8957 16.9623L73.0557 17.1037C73.5306 16.6842 73.803 16.0959 73.8668 15.3632L73.6411 15.3479ZM70.3607 15.4555H73.754V15.2555H70.3607V15.4555ZM70.2475 14.3655V15.3555H70.4739V14.3655H70.2475ZM74.8902 14.2655H70.3607V14.4655H74.8902V14.2655ZM75.0656 14.9705C75.0656 14.7702 75.0333 14.5571 75.0024 14.3523L74.778 14.3788C74.8094 14.5865 74.8392 14.7859 74.8392 14.9705H75.0656ZM77.8785 11.6331H82.1278V11.4331H77.8785V11.6331ZM77.9917 14.1456V11.5331H77.7653V14.1456H77.9917ZM81.7076 14.0456H77.8785V14.2456H81.7076V14.0456ZM81.8208 15.1356V14.1456H81.5944V15.1356H81.8208ZM77.8785 15.2356H81.7076V15.0356H77.8785V15.2356ZM77.9917 17.7481V15.1356H77.7653V17.7481H77.9917ZM82.1278 17.6481H77.8785V17.8481H82.1278V17.6481ZM82.241 18.7656V17.7481H82.0146V18.7656H82.241ZM76.6799 18.8656H82.1278V18.6656H76.6799V18.8656ZM76.5667 10.5156V18.7656H76.7931V10.5156H76.5667ZM82.1278 10.4156H76.6799V10.6156H82.1278V10.4156ZM82.241 11.5331V10.5156H82.0146V11.5331H82.241ZM87.171 18.6656H85.9881V18.8656H87.171V18.6656ZM87.0578 11.5331V18.7656H87.2842V11.5331H87.0578ZM89.786 11.4331H87.171V11.6331H89.786V11.4331ZM89.6728 10.5156V11.5331H89.8992V10.5156H89.6728ZM83.3731 10.6156H89.786V10.4156H83.3731V10.6156ZM83.4863 11.5331V10.5156H83.2599V11.5331H83.4863ZM85.9881 11.4331H83.3731V11.6331H85.9881V11.4331ZM86.1013 18.7656V11.5331H85.8749V18.7656H86.1013Z" fill="#EBEEF3"/>
    <path fill-rule="evenodd" clip-rule="evenodd" d="M94.4402 10.5156V18.7656H95.6388V10.5156H94.4402ZM99.7636 18.7656H100.947V11.5331H103.562V10.5156H97.1486V11.5331H99.7636V18.7656Z" fill="#EBEEF3"/>
    <path d="M94.4403 18.7655H94.3271V18.8655H94.4403V18.7655ZM94.4403 10.5155V10.4155H94.3271V10.5155H94.4403ZM95.6389 18.7655V18.8655H95.7521V18.7655H95.6389ZM95.6389 10.5155H95.7521V10.4155H95.6389V10.5155ZM100.947 18.7655V18.8655H101.06V18.7655H100.947ZM99.7636 18.7655H99.6504V18.8655H99.7636V18.7655ZM100.947 11.533V11.433H100.834V11.533H100.947ZM103.562 11.533V11.633H103.675V11.533H103.562ZM103.562 10.5155H103.675V10.4155H103.562V10.5155ZM97.1486 10.5155V10.4155H97.0354V10.5155H97.1486ZM97.1486 11.533H97.0354V11.633H97.1486V11.533ZM99.7636 11.533H99.8768V11.433H99.7636V11.533ZM94.5535 18.7655V10.5155H94.3271V18.7655H94.5535ZM95.6389 18.6655H94.4403V18.8655H95.6389V18.6655ZM95.5257 10.5155V18.7655H95.7521V10.5155H95.5257ZM94.4403 10.6155H95.6389V10.4155H94.4403V10.6155ZM100.947 18.6655H99.7636V18.8655H100.947V18.6655ZM100.834 11.533V18.7655H101.06V11.533H100.834ZM103.562 11.433H100.947V11.633H103.562V11.433ZM103.449 10.5155V11.533H103.675V10.5155H103.449ZM97.1486 10.6155H103.562V10.4155H97.1486V10.6155ZM97.2618 11.533V10.5155H97.0354V11.533H97.2618ZM99.7636 11.433H97.1486V11.633H99.7636V11.433ZM99.8768 18.7655V11.533H99.6504V18.7655H99.8768Z" fill="#EBEEF3"/>
    <path fill-rule="evenodd" clip-rule="evenodd" d="M112.294 18.9444C113.664 18.9444 114.8 18.5319 115.718 17.6931C116.637 16.8681 117.088 15.8506 117.104 14.6406C117.104 13.4444 116.637 12.4269 115.718 11.5881C114.784 10.7494 113.648 10.3369 112.294 10.3369C110.924 10.3369 109.788 10.7494 108.869 11.5881C107.951 12.4131 107.5 13.4444 107.5 14.6406C107.5 15.8369 107.951 16.8544 108.869 17.6931C109.788 18.5319 110.924 18.9444 112.294 18.9444ZM112.294 17.9269C111.298 17.9269 110.442 17.6244 109.757 17.0056C109.072 16.3869 108.714 15.6031 108.714 14.6406C108.714 13.6781 109.072 12.8944 109.757 12.2756C110.442 11.6569 111.298 11.3544 112.294 11.3544C113.29 11.3544 114.147 11.6569 114.832 12.2756C115.531 12.8944 115.874 13.6781 115.874 14.6406C115.874 15.6031 115.516 16.3869 114.832 17.0056C114.147 17.6244 113.29 17.9269 112.294 17.9269ZM118.785 10.5157V18.7657H119.998V13.637L119.952 12.042H119.998L124.746 18.7657H125.991V10.5157H124.792V15.342L124.84 16.937H124.792L120.247 10.5157H118.785Z" fill="#EBEEF3"/>
    <path d="M115.718 17.693L115.638 17.6229L115.636 17.6235L115.718 17.693ZM117.104 14.6405L117.217 14.6417V14.6405H117.104ZM115.718 11.588L115.799 11.5185V11.5179L115.718 11.588ZM108.869 11.588L108.95 11.6582L108.951 11.6576L108.869 11.588ZM108.869 17.693L108.788 17.7626L108.869 17.693ZM109.757 17.0055L109.838 16.9356L109.757 17.0055ZM109.757 12.2755L109.838 12.3455L109.757 12.2755ZM114.832 12.2755L114.75 12.3455L114.751 12.3462L114.832 12.2755ZM114.832 17.0055L114.912 17.0754L114.832 17.0055ZM118.785 18.7656H118.671V18.8656H118.785V18.7656ZM118.785 10.5156V10.4156H118.671V10.5156H118.785ZM119.998 18.7656V18.8656H120.111V18.7656H119.998ZM119.998 13.6369H120.112L120.111 13.6343L119.998 13.6369ZM119.952 12.0419V11.9419H119.836L119.839 12.0444L119.952 12.0419ZM119.998 12.0419L120.094 11.9889L120.062 11.9419H119.998V12.0419ZM124.746 18.7656L124.65 18.8185L124.684 18.8656H124.746V18.7656ZM125.991 18.7656V18.8656H126.104V18.7656H125.991ZM125.991 10.5156H126.104V10.4156H125.991V10.5156ZM124.792 10.5156V10.4156H124.679V10.5156H124.792ZM124.792 15.3419H124.679L124.68 15.3444L124.792 15.3419ZM124.84 16.9369V17.0369H124.955L124.953 16.9343L124.84 16.9369ZM124.792 16.9369L124.697 16.9899L124.73 17.0369H124.792V16.9369ZM120.247 10.5156L120.343 10.4626L120.311 10.4156H120.247V10.5156ZM115.636 17.6235C114.741 18.4418 113.635 18.8443 112.294 18.8443V19.0443C113.693 19.0443 114.859 18.6218 115.799 17.7626L115.636 17.6235ZM116.99 14.6394C116.976 15.8257 116.534 16.8178 115.638 17.6229L115.799 17.7632C116.739 16.9182 117.201 15.8753 117.217 14.6417L116.99 14.6394ZM115.636 11.6576C116.534 12.4774 116.99 13.4699 116.99 14.6405H117.217C117.217 13.4186 116.739 12.3761 115.799 11.5185L115.636 11.6576ZM112.294 10.4368C113.619 10.4368 114.725 10.8391 115.638 11.6582L115.799 11.5179C114.843 10.6595 113.678 10.2368 112.294 10.2368V10.4368ZM108.951 11.6576C109.847 10.8393 110.953 10.4368 112.294 10.4368V10.2368C110.895 10.2368 109.729 10.6593 108.788 11.5185L108.951 11.6576ZM107.613 14.6405C107.613 13.4686 108.054 12.4631 108.95 11.6582L108.789 11.5179C107.848 12.363 107.387 13.42 107.387 14.6405H107.613ZM108.951 17.6235C108.054 16.8042 107.613 15.812 107.613 14.6405H107.387C107.387 15.8616 107.848 16.9043 108.788 17.7626L108.951 17.6235ZM112.294 18.8443C110.953 18.8443 109.847 18.4418 108.951 17.6235L108.788 17.7626C109.729 18.6218 110.895 19.0443 112.294 19.0443V18.8443ZM109.676 17.0754C110.383 17.7145 111.269 18.0268 112.294 18.0268V17.8268C111.326 17.8268 110.5 17.534 109.838 16.9356L109.676 17.0754ZM108.601 14.6405C108.601 15.6273 108.969 16.4367 109.676 17.0754L109.838 16.9356C109.175 16.3368 108.827 15.5788 108.827 14.6405H108.601ZM109.676 12.2056C108.969 12.8443 108.601 13.6537 108.601 14.6405H108.827C108.827 13.7023 109.175 12.9442 109.838 12.3455L109.676 12.2056ZM112.294 11.2543C111.269 11.2543 110.383 11.5665 109.676 12.2056L109.838 12.3455C110.5 11.747 111.326 11.4543 112.294 11.4543V11.2543ZM114.912 12.2056C114.204 11.5665 113.319 11.2543 112.294 11.2543V11.4543C113.261 11.4543 114.088 11.747 114.75 12.3455L114.912 12.2056ZM115.987 14.6405C115.987 13.6548 115.635 12.8445 114.911 12.2048L114.751 12.3462C115.428 12.9441 115.761 13.7013 115.761 14.6405H115.987ZM114.912 17.0754C115.619 16.4367 115.987 15.6273 115.987 14.6405H115.761C115.761 15.5788 115.413 16.3368 114.75 16.9356L114.912 17.0754ZM112.294 18.0268C113.319 18.0268 114.204 17.7145 114.912 17.0754L114.75 16.9356C114.088 17.534 113.261 17.8268 112.294 17.8268V18.0268ZM118.898 18.7656V10.5156H118.671V18.7656H118.898ZM119.998 18.6656H118.785V18.8656H119.998V18.6656ZM119.885 13.6369V18.7656H120.111V13.6369H119.885ZM119.839 12.0444L119.886 13.6394L120.111 13.6343L120.065 12.0393L119.839 12.0444ZM119.998 11.9419H119.952V12.1419H119.998V11.9419ZM124.842 18.7127L120.094 11.9889L119.903 12.0948L124.65 18.8185L124.842 18.7127ZM125.991 18.6656H124.746V18.8656H125.991V18.6656ZM125.878 10.5156V18.7656H126.104V10.5156H125.878ZM124.792 10.6156H125.991V10.4156H124.792V10.6156ZM124.905 15.3419V10.5156H124.679V15.3419H124.905ZM124.953 16.9343L124.905 15.3393L124.68 15.3444L124.727 16.9394L124.953 16.9343ZM124.792 17.0369H124.84V16.8369H124.792V17.0369ZM120.152 10.5686L124.697 16.9899L124.889 16.8838L120.343 10.4626L120.152 10.5686ZM118.785 10.6156H120.247V10.4156H118.785V10.6156Z" fill="#EBEEF3"/>
    <path d="M17.3914 11.2578C16.9401 11.6841 16.6754 12.3441 16.6754 13.1828V43.5978C16.6754 44.4503 16.9401 45.1103 17.3914 45.5228L17.5004 45.6191L36.7859 28.5966V28.3903V28.1841L17.5004 11.1616L17.3914 11.2578Z" fill="url(#paint0_linear_3_116)"/>
    <path d="M43.2144 34.2754L36.7859 28.5967V28.3904V28.1842L43.2144 22.5054L43.3545 22.5742L50.9659 26.3967C53.1451 27.4829 53.1451 29.2704 50.9659 30.3704L43.3545 34.1929L43.2144 34.2754Z" fill="url(#paint1_linear_3_116)"/>
    <path d="M43.3545 34.1931L36.7859 28.3906L17.3914 45.5231C18.1074 46.1968 19.2904 46.2794 20.629 45.6056L43.3545 34.1931Z" fill="url(#paint2_linear_3_116)"/>
    <path d="M43.3545 22.5879L20.6134 11.1754C19.2747 10.5017 18.0918 10.5842 17.3758 11.2579L36.7859 28.3904L43.3545 22.5879Z" fill="url(#paint3_linear_3_116)"/>
    <path opacity="0.2" d="M43.2145 34.0693L20.6135 45.4131C19.3526 46.0456 18.2164 46.0043 17.5004 45.4268L17.3914 45.5231L17.5004 45.6193C18.2319 46.1968 19.3526 46.2381 20.6135 45.6056L43.3545 34.1931L43.2145 34.0693Z" fill="black"/>
    <path opacity="0.12" d="M17.3914 45.3308C16.9401 44.9046 16.6754 44.2446 16.6754 43.4058V43.6121C16.6754 44.4646 16.9401 45.1246 17.3914 45.5371L17.5004 45.4408L17.3914 45.3308Z" fill="black"/>
    <path opacity="0.12" d="M50.9659 30.1781L43.1989 34.0694L43.3389 34.1931L50.9504 30.3706C52.04 29.8206 52.5847 29.1056 52.5847 28.3906C52.507 29.0369 51.9621 29.6831 50.9659 30.1781Z" fill="black"/>
    <path opacity="0.25" d="M20.6134 11.3684L50.966 26.6034C51.9466 27.0984 52.507 27.7309 52.6004 28.3909C52.6004 27.6759 52.0555 26.9472 50.966 26.4109L20.6134 11.1759C18.4342 10.0897 16.6598 10.9972 16.6598 13.1972V13.4034C16.6598 11.1897 18.4498 10.2822 20.6134 11.3684Z" fill="#EBEEF3"/>
  </g>
  <defs>
    <linearGradient id="paint0_linear_3_116" x1="35.0733" y1="12.8662" x2="12.1738" y2="38.7892" gradientUnits="userSpaceOnUse">
      <stop stop-color="#00A0FF"/>
      <stop offset="0.00657445" stop-color="#00A1FF"/>
      <stop offset="0.2601" stop-color="#00BEFF"/>
      <stop offset="0.5122" stop-color="#00D2FF"/>
      <stop offset="0.7604" stop-color="#00DFFF"/>
      <stop offset="1" stop-color="#00E3FF"/>
    </linearGradient>
    <linearGradient id="paint1_linear_3_116" x1="53.8058" y1="28.3924" x2="16.1422" y2="28.3924" gradientUnits="userSpaceOnUse">
      <stop stop-color="#FFE000"/>
      <stop offset="0.4087" stop-color="#FFBD00"/>
      <stop offset="0.7754" stop-color="#FFA500"/>
      <stop offset="1" stop-color="#FF9C00"/>
    </linearGradient>
    <linearGradient id="paint2_linear_3_116" x1="39.7853" y1="31.5477" x2="8.73175" y2="66.7014" gradientUnits="userSpaceOnUse">
      <stop stop-color="#FF3A44"/>
      <stop offset="1" stop-color="#C31162"/>
    </linearGradient>
    <linearGradient id="paint3_linear_3_116" x1="12.4997" y1="1.1327" x2="26.3664" y2="16.8302" gradientUnits="userSpaceOnUse">
      <stop stop-color="#32A071"/>
      <stop offset="0.0685" stop-color="#2DA771"/>
      <stop offset="0.4762" stop-color="#15CF74"/>
      <stop offset="0.8009" stop-color="#06E775"/>
      <stop offset="1" stop-color="#00F076"/>
    </linearGradient>
    <clipPath id="clip0_3_116">
      <rect width="211.69" height="55" fill="white" transform="translate(0.538269 0.890625)"/>
    </clipPath>
  </defs>
</svg>