<svg xmlns="http://www.w3.org/2000/svg" width="90" height="90" viewBox="0 0 90 90" fill="none">
  <path d="M62.55 19.125V76.5H16.425V19.125H62.55Z" fill="#190083" stroke="#190083" stroke-width="5" stroke-miterlimit="10"/>
  <path d="M19.8 73.125H70.425V11.25H19.8V73.125Z" fill="#FFC7B4"/>
  <path fill-rule="evenodd" clip-rule="evenodd" d="M21.15 71.775H69.075V12.6H21.15V71.775ZM19.8 73.125V11.25H70.425V73.125H19.8Z" fill="#190083"/>
  <path d="M74.403 24.147C73.305 23.049 71.865 22.5 70.425 22.5C68.985 22.5 67.545 23.049 66.447 24.147C64.251 26.343 64.251 29.9047 66.447 32.1007C67.545 33.201 68.985 33.75 70.425 33.75C71.865 33.75 73.305 33.201 74.403 32.103C76.599 29.9047 76.599 26.3452 74.403 24.147Z" fill="#190083"/>
  <path fill-rule="evenodd" clip-rule="evenodd" d="M67.4016 31.1461L67.4025 31.1471C68.2367 31.983 69.3282 32.4 70.425 32.4C71.5219 32.4 72.614 31.9828 73.4483 31.1484C75.1171 29.4773 75.1171 26.7727 73.4483 25.1016C73.4483 25.1015 73.4483 25.1015 73.4483 25.1014L67.4016 31.1461ZM73.4483 25.1014C72.6139 24.2671 71.5219 23.85 70.425 23.85C69.3281 23.85 68.236 24.2671 67.4016 25.1016C65.7327 26.7704 65.7327 29.4773 67.4016 31.1461L73.4483 25.1014ZM74.403 32.103C73.305 33.201 71.865 33.75 70.425 33.75C68.985 33.75 67.545 33.201 66.447 32.1007C64.251 29.9047 64.251 26.343 66.447 24.147C67.545 23.049 68.985 22.5 70.425 22.5C71.865 22.5 73.305 23.049 74.403 24.147C76.599 26.3452 76.599 29.9047 74.403 32.103Z" fill="#190083"/>
  <path d="M73.7144 26.6535L72.5602 25.5015L69.5362 28.5277L68.3662 27.3555L67.2119 28.512L69.5339 30.834L69.5362 30.8317L69.5407 30.834L73.7144 26.6535Z" fill="#FFC7B4"/>
  <path d="M74.403 38.2099C73.305 37.1116 71.865 36.5625 70.425 36.5625C68.985 36.5625 67.545 37.1116 66.447 38.2099C64.251 40.4063 64.251 43.9687 66.447 46.1651C67.545 47.2634 68.985 47.8125 70.425 47.8125C71.865 47.8125 73.305 47.2634 74.403 46.1651C76.599 43.9687 76.599 40.4086 74.403 38.2099Z" fill="#190083"/>
  <path fill-rule="evenodd" clip-rule="evenodd" d="M73.4483 39.1643C72.6139 38.3297 71.5218 37.9125 70.425 37.9125C69.3282 37.9125 68.2361 38.3297 67.4017 39.1643C65.7327 40.8335 65.7327 43.5415 67.4017 45.2107C68.2361 46.0453 69.3282 46.4625 70.425 46.4625C71.5218 46.4625 72.6139 46.0453 73.4483 45.2107C75.1168 43.5418 75.1177 40.8362 73.4483 39.1643ZM74.403 38.2099C73.305 37.1116 71.865 36.5625 70.425 36.5625C68.985 36.5625 67.545 37.1116 66.447 38.2099C64.251 40.4063 64.251 43.9687 66.447 46.1651C67.545 47.2634 68.985 47.8125 70.425 47.8125C71.865 47.8125 73.305 47.2634 74.403 46.1651C76.599 43.9687 76.599 40.4086 74.403 38.2099Z" fill="#190083"/>
  <path d="M73.7144 40.716L72.5602 39.564L69.5362 42.5902L68.3662 41.418L67.2119 42.5745L69.5339 44.8965L69.5362 44.8942L69.5407 44.8965L73.7144 40.716Z" fill="#FFC7B4"/>
  <path d="M74.403 52.272C73.305 51.174 71.865 50.625 70.425 50.625C68.985 50.625 67.545 51.174 66.447 52.272C64.251 54.468 64.251 58.0298 66.447 60.2258C67.545 61.326 68.985 61.875 70.425 61.875C71.865 61.875 73.305 61.326 74.403 60.228C76.599 58.0297 76.599 54.4703 74.403 52.272Z" fill="#190083"/>
  <path fill-rule="evenodd" clip-rule="evenodd" d="M67.4016 59.2711L67.4025 59.2721C68.2367 60.108 69.3282 60.525 70.425 60.525C71.5219 60.525 72.614 60.1078 73.4483 59.2734C75.1171 57.6023 75.1171 54.8977 73.4483 53.2266C73.4483 53.2265 73.4483 53.2265 73.4483 53.2264L67.4016 59.2711ZM73.4483 53.2264C72.6139 52.3921 71.5219 51.975 70.425 51.975C69.3281 51.975 68.236 52.3922 67.4016 53.2266C65.7327 54.8954 65.7327 57.6023 67.4016 59.2711L73.4483 53.2264ZM74.403 60.228C73.305 61.326 71.865 61.875 70.425 61.875C68.985 61.875 67.545 61.326 66.447 60.2258C64.251 58.0298 64.251 54.468 66.447 52.272C67.545 51.174 68.985 50.625 70.425 50.625C71.865 50.625 73.305 51.174 74.403 52.272C76.599 54.4703 76.599 58.0297 74.403 60.228Z" fill="#190083"/>
  <path d="M73.7144 54.7785L72.5602 53.6265L69.5362 56.6527L68.3662 55.4805L67.2119 56.637L69.5339 58.959L69.5362 58.9567L69.5407 58.959L73.7144 54.7785Z" fill="#FFC7B4"/>
</svg>