<svg xmlns="http://www.w3.org/2000/svg" width="90" height="90" viewBox="0 0 90 90" fill="none">
  <path d="M67.5 28.125H11.25V73.125H67.5V28.125Z" fill="#190083"/>
  <path fill-rule="evenodd" clip-rule="evenodd" d="M10.575 27.45H68.175V73.8H10.575V27.45ZM11.925 28.8V72.45H66.825V28.8H11.925Z" fill="#190083"/>
  <path d="M73.125 22.5H16.875V67.5H73.125V22.5Z" fill="#F3E02B"/>
  <path fill-rule="evenodd" clip-rule="evenodd" d="M16.2 22.5C16.2 22.1272 16.5022 21.825 16.875 21.825H73.125C73.4978 21.825 73.8 22.1272 73.8 22.5V67.5C73.8 67.8727 73.4978 68.175 73.125 68.175H16.875C16.5022 68.175 16.2 67.8727 16.2 67.5V22.5ZM17.55 23.175V66.825H72.45V23.175H17.55Z" fill="#190083"/>
  <path d="M44.775 42.9368L16.875 22.5H73.125L44.775 42.9368Z" fill="#F3E02B"/>
  <path fill-rule="evenodd" clip-rule="evenodd" d="M16.2334 22.2902C16.3242 22.0126 16.583 21.825 16.875 21.825H73.125C73.4179 21.825 73.6773 22.0139 73.7673 22.2926C73.8573 22.5713 73.7573 22.8762 73.5197 23.0475L45.1697 43.4843C44.9325 43.6553 44.6121 43.6541 44.3761 43.4812L16.4761 23.0445C16.2406 22.872 16.1427 22.5676 16.2334 22.2902ZM18.9388 23.175L44.7782 42.1023L71.0343 23.175H18.9388Z" fill="#190083"/>
  <path d="M72 30.375C75.7282 30.375 78.75 27.3532 78.75 23.625C78.75 19.8967 75.7282 16.875 72 16.875C68.2717 16.875 65.25 19.8967 65.25 23.625C65.25 27.3532 68.2717 30.375 72 30.375Z" fill="#190083"/>
</svg>