<svg xmlns="http://www.w3.org/2000/svg" width="90" height="90" viewBox="0 0 90 90" fill="none">
  <path d="M55.1362 78.75H11.25V22.5H73.125V61.0515L55.1362 78.75Z" fill="#190083"/>
  <path d="M60.7612 73.125H16.875V16.875H78.75V55.4265L60.7612 73.125Z" fill="#6490F2"/>
  <path fill-rule="evenodd" clip-rule="evenodd" d="M60.2085 71.775L77.4 54.8609V18.225H18.225V71.775H60.2085ZM78.75 55.4265L60.7612 73.125H16.875V16.875H78.75V55.4265Z" fill="#190083"/>
  <path fill-rule="evenodd" clip-rule="evenodd" d="M60.0862 54.5266H78.3V55.8766H61.4362V72.4501H60.0862V54.5266Z" fill="#190083"/>
  <path d="M30.9375 14.0625C30.9375 12.51 32.1975 11.25 33.75 11.25C35.3025 11.25 36.5625 12.51 36.5625 14.0625V21.9375C36.5625 23.49 35.3025 24.75 33.75 24.75C32.1975 24.75 30.9375 23.49 30.9375 21.9375V14.0625Z" fill="#6490F2"/>
  <path fill-rule="evenodd" clip-rule="evenodd" d="M29.5875 14.0624C29.5875 11.7643 31.4519 9.8999 33.75 9.8999C36.0481 9.8999 37.9125 11.7643 37.9125 14.0624V21.9374C37.9125 24.2355 36.0481 26.0999 33.75 26.0999C31.4519 26.0999 29.5875 24.2355 29.5875 21.9374V14.0624ZM33.75 11.2499C32.1975 11.2499 30.9375 12.5099 30.9375 14.0624V21.9374C30.9375 23.4899 32.1975 24.7499 33.75 24.7499C35.3025 24.7499 36.5625 23.4899 36.5625 21.9374V14.0624C36.5625 12.5099 35.3025 11.2499 33.75 11.2499Z" fill="#190083"/>
  <path d="M59.175 14.0625C59.175 12.51 60.435 11.25 61.9875 11.25C63.54 11.25 64.8 12.51 64.8 14.0625V21.9375C64.8 23.49 63.54 24.75 61.9875 24.75C60.435 24.75 59.175 23.49 59.175 21.9375V14.0625Z" fill="#6490F2"/>
  <path fill-rule="evenodd" clip-rule="evenodd" d="M57.825 14.0624C57.825 11.7643 59.6894 9.8999 61.9875 9.8999C64.2856 9.8999 66.15 11.7643 66.15 14.0624V21.9374C66.15 24.2355 64.2856 26.0999 61.9875 26.0999C59.6894 26.0999 57.825 24.2355 57.825 21.9374V14.0624ZM61.9875 11.2499C60.435 11.2499 59.175 12.5099 59.175 14.0624V21.9374C59.175 23.4899 60.435 24.7499 61.9875 24.7499C63.54 24.7499 64.8 23.4899 64.8 21.9374V14.0624C64.8 12.5099 63.54 11.2499 61.9875 11.2499Z" fill="#190083"/>
</svg>